<?xml version="1.0" encoding="UTF-8" standalone="no"?>
<svg
   width="500.00003pt"
   height="499.86954pt"
   version="1.1"
   viewBox="0 0 500.00003 499.86954"
   id="svg42"
   sodipodi:docname="noun-webcam-1771968.svg"
   inkscape:export-filename="webcam.svg"
   inkscape:export-xdpi="72"
   inkscape:export-ydpi="72"
   xmlns:inkscape="http://www.inkscape.org/namespaces/inkscape"
   xmlns:sodipodi="http://sodipodi.sourceforge.net/DTD/sodipodi-0.dtd"
   xmlns="http://www.w3.org/2000/svg"
   xmlns:svg="http://www.w3.org/2000/svg">
  <sodipodi:namedview
     id="namedview44"
     pagecolor="#ffffff"
     bordercolor="#666666"
     borderopacity="1.0"
     inkscape:showpageshadow="2"
     inkscape:pageopacity="0.0"
     inkscape:pagecheckerboard="0"
     inkscape:deskcolor="#d1d1d1"
     inkscape:document-units="pt"
     showgrid="false" />
  <defs
     id="defs20" />
  <g
     id="g40">
    <path
       d="m 401.91637,489.06624 c -377.97753,-344.49636 -188.98877,-172.24818 0,0 z M 249.86362,319.86576 c 38.60138,0 70.14207,-31.40668 70.14207,-70.00806 0,-38.60139 -31.40668,-70.00807 -70.14207,-70.00807 -1.52408,0 -2.90444,0.41691 -4.42852,0.41691 5.53566,7.74992 8.99129,17.15366 8.99129,27.39606 0,26.01095 -21.17022,47.31399 -47.31399,47.31399 -9.95945,0 -19.09494,-3.18241 -26.70114,-8.4401 0,1.10712 -0.27794,2.07528 -0.27794,3.18241 -0.13898,38.74013 31.26793,70.14681 69.73057,70.14681 z m 0,180.00379 C 387.80447,499.86955 500,387.80447 500,249.86362 500,112.06508 387.79617,0 249.86362,0 112.20739,0 0,112.06508 0,249.86362 0,387.80447 112.20383,499.86955 249.86362,499.86955 Z m 0,-367.46673 c 64.88509,0 117.73949,52.71091 117.73949,117.46199 0,64.88509 -52.71091,117.60074 -117.73949,117.60074 -64.75108,0 -117.46199,-52.71091 -117.46199,-117.60074 0,-64.75108 52.71565,-117.46199 117.46199,-117.46199 z"
       id="path22"
       sodipodi:nodetypes="cccsscssccccssssssssss"
       style="fill:#1a1a1a;stroke-width:1.18587" />
  </g>
</svg>
