<?xml version="1.0" encoding="utf-8"?>
<!-- Svg Vector Icons : http://www.onlinewebfonts.com/icon -->
<!DOCTYPE svg PUBLIC "-//W3C//DTD SVG 1.1//EN" "http://www.w3.org/Graphics/SVG/1.1/DTD/svg11.dtd">
<svg version="1.1" xmlns="http://www.w3.org/2000/svg" xmlns:xlink="http://www.w3.org/1999/xlink" x="0px" y="0px" viewBox="0 0 1000 1000" enable-background="new 0 0 1000 1000" xml:space="preserve">
<metadata> Svg Vector Icons : http://www.onlinewebfonts.com/icon </metadata>
<g><g transform="translate(0.000000,511.000000) scale(0.100000,-0.100000)"><path d="M7876,4663.3c-94.1-47-196-162-237.8-276.9c-23.5-62.7-41.8-70.6-143.7-70.6c-101.9,0-117.6,7.8-146.3,78.4c-73.2,175.1-324,310.9-509.5,277c-141.1-28.7-496.4-214.2-569.6-300.5c-120.2-143.7-141.1-303.1-65.3-506.9c26.1-62.7,18.3-83.6-44.4-148.9c-67.9-70.5-78.4-73.2-258.7-60.1c-156.8,13.1-203.8,5.2-295.2-39.2c-133.2-67.9-188.1-146.3-276.9-391.9c-141.1-384.1-60.1-637.5,240.4-760.3c73.2-31.4,81-47,81-148.9c0-107.1-7.8-117.6-101.9-167.2c-115-57.5-190.7-148.9-237.8-295.2c-41.8-130.6-18.3-235.1,107.1-499c75.8-162,128-237.8,201.2-287.4c130.6-88.8,297.9-109.7,446.8-57.5l117.6,41.8l83.6-81c75.8-73.2,81-88.8,57.5-159.4c-15.7-41.8-20.9-141.1-15.7-219.5c18.3-209,112.3-313.5,376.2-420.7c112.4-47,245.6-91.4,292.6-101.9c190.7-36.6,436.3,101.9,517.3,292.6c28.8,70.5,52.3,86.2,146.3,96.7c81,7.8,120.2,0,138.5-28.7c15.7-20.9,49.6-73.2,78.4-120.2c78.4-120.2,258.7-203.8,412.8-190.7c177.7,15.7,561.7,214.2,637.5,329.2c99.3,146.3,107.1,300.5,26.1,499c-10.5,23.5,13.1,75.8,57.5,128l73.1,88.8l133.2-34c329.2-86.2,551.3,120.2,689.8,642.7c54.9,203.8-81,465.1-282.2,538.2c-75.8,26.1-88.8,44.4-88.8,115c0,47-5.2,101.9-15.7,122.8c-7.9,23.5,15.7,49.6,65.3,70.5c114.9,47,258.6,214.2,279.5,326.6c26.1,141.1-2.6,253.4-117.6,496.4c-114.9,235.1-185.5,303.1-363.2,352.7c-91.4,23.5-138.5,20.9-258.7-13.1l-146.3-41.8l-75.8,73.2c-73.2,73.2-73.2,78.4-44.4,203.8c65.3,287.4-70.5,488.6-407.6,614C8194.7,4718.2,8009.2,4728.6,7876,4663.3z M7930.8,3558.1c339.7-104.5,606.2-344.9,768.2-692.4c99.3-219.5,117.6-582.6,36.6-843.9c-109.7-360.6-431.1-681.9-791.7-791.7c-261.3-81-624.4-62.7-843.9,36.6c-574.8,266.5-859.6,849.1-705.4,1442.2c101.9,391.9,459.8,755.1,849.1,859.6C7452.7,3623.5,7729.6,3620.8,7930.8,3558.1z"/><path d="M1691.6,4605.8c-41.8-26.1-391.9-365.8-776-749.9C84.7,3019.9,97.8,3040.8,100.4,2591.4c7.8-1246.3,958.9-2970.7,2489.9-4527.9C3787-3154,5022.8-3974.4,6177.7-4321.9c334.4-99.3,838.7-175.1,1105.2-162c352.7,15.7,384.1,36.6,1225.4,880.5c637.5,640.1,721.1,731.6,721.1,804.7c0,49.7-23.5,109.7-57.5,148.9c-34,34-517.3,331.8-1079.1,658.4C6823-1246.7,6924.9-1265,6491.2-1722.2c-300.5-318.8-514.7-467.7-668.9-467.7c-708,7.8-2722.5,1776.7-3284.2,2889.7c-112.3,222.1-135.9,292.6-146.3,444.2c-18.3,245.6,23.5,321.4,371,663.6c300.5,297.9,352.7,371,352.7,499c0,60.1-164.6,397.1-553.9,1131.3c-303.1,577.4-567,1071.2-587.9,1102.6c-31.3,49.6-138.5,115-185.5,115C1777.8,4655.5,1736,4632,1691.6,4605.8z"/></g></g>
</svg>