<?xml version="1.0" encoding="UTF-8" standalone="no"?>
<svg
   width="500pt"
   height="500pt"
   version="1.1"
   viewBox="0 0 500 500"
   id="svg8"
   sodipodi:docname="matrix-client-icon_bright.svg"
   inkscape:version="1.1.1 (3bf5ae0d25, 2021-09-20)"
   xmlns:inkscape="http://www.inkscape.org/namespaces/inkscape"
   xmlns:sodipodi="http://sodipodi.sourceforge.net/DTD/sodipodi-0.dtd"
   xmlns="http://www.w3.org/2000/svg"
   xmlns:svg="http://www.w3.org/2000/svg">
  <defs
     id="defs12" />
  <sodipodi:namedview
     id="namedview10"
     pagecolor="#ffffff"
     bordercolor="#666666"
     borderopacity="1.0"
     inkscape:pageshadow="2"
     inkscape:pageopacity="0.0"
     inkscape:pagecheckerboard="0"
     inkscape:document-units="pt"
     showgrid="false"
     inkscape:zoom="0.95459415"
     inkscape:cx="-194.8472"
     inkscape:cy="541.59142"
     inkscape:window-width="2560"
     inkscape:window-height="1373"
     inkscape:window-x="0"
     inkscape:window-y="0"
     inkscape:window-maximized="1"
     inkscape:current-layer="svg8" />
  <g
     id="g6"
     transform="matrix(0.93754444,0,0,0.93754444,-78.139106,-13.3983)"
     style="fill:#f9f9f9">
    <path
       d="m 616.65,340.64 c 0,-8.3086 -1.5625,-16.402 -4.2227,-24.148 -2.2617,-8.6328 -5.8789,-16.965 -10.734,-24.5 -9.0078,-13.789 -21.488,-25.129 -35.375,-33.902 -20.184,-12.762 -43.168,-20.23 -66.688,-23.543 -0.0469,0.39844 -0.0469,0.79297 -0.0937,1.168 0.11719,1.6328 -0.32812,4.7383 -0.32812,4.7383 -8.7266,63.91 -75.227,115.69 -161.7,128.45 17.012,41.977 70.816,72.801 134.87,73.383 7.0469,21.07 23.613,47.016 62.559,52.875 0,0 -27.02,-30.895 -11.129,-59.172 54.227,-14.383 92.844,-51.621 92.844,-95.348 z"
       id="path2"
       style="fill:#f9f9f9" />
    <path
       d="m 473.11,150.12 c -12.902,-19.785 -30.777,-36.051 -50.703,-48.625 -40.039,-25.293 -87.711,-36.539 -134.66,-36.68 -46.945,0.16406 -94.641,11.387 -134.68,36.703 -19.902,12.578 -37.801,28.816 -50.703,48.625 -12.762,19.742 -20.254,43.215 -18.852,66.41 0,3.5469 0.23438,7.0938 0.58203,10.57 -0.09375,1.2812 -0.30469,2.4258 -0.35156,3.7305 h 0.86328 c 7.7227,56.398 60.27,103.39 132,122.43 22.773,40.555 -15.961,84.863 -15.961,84.863 55.836,-8.3516 79.59,-45.594 89.738,-75.785 13.301,-0.11719 26.297,-1.168 38.875,-3.0352 86.473,-12.762 152.95,-64.539 161.7,-128.45 0,0 0.44141,-3.125 0.32812,-4.7383 0.0469,-0.39844 0.0469,-0.79297 0.0937,-1.168 0.28125,-2.8008 0.60547,-5.5781 0.60547,-8.4219 1.3789,-23.215 -6.1328,-46.688 -18.875,-66.43 z m -257.27,84.469 c -12.203,0 -22.074,-9.8945 -22.074,-22.074 0,-12.203 9.8945,-22.074 22.074,-22.074 12.18,0 22.074,9.8945 22.074,22.074 0,12.18 -9.8945,22.074 -22.074,22.074 z m 143.78,-44.172 c 12.203,0 22.074,9.8945 22.074,22.074 0,12.203 -9.8945,22.074 -22.074,22.074 -12.203,0 -22.074,-9.8945 -22.074,-22.074 0,-12.18 9.8945,-22.074 22.074,-22.074 z m -71.867,44.172 c -12.203,0 -22.074,-9.8945 -22.074,-22.074 0,-12.203 9.8945,-22.074 22.074,-22.074 12.203,0 22.074,9.8945 22.074,22.074 0,12.18 -9.8945,22.074 -22.074,22.074 z"
       id="path4"
       style="fill:#f9f9f9" />
  </g>
</svg>
