<?xml version="1.0" encoding="UTF-8" standalone="no"?>
<svg
   width="500pt"
   height="500pt"
   version="1.1"
   viewBox="0 0 500 500"
   id="svg10"
   sodipodi:docname="slide-icon_bright.svg"
   inkscape:version="1.1.1 (3bf5ae0d25, 2021-09-20)"
   xmlns:inkscape="http://www.inkscape.org/namespaces/inkscape"
   xmlns:sodipodi="http://sodipodi.sourceforge.net/DTD/sodipodi-0.dtd"
   xmlns="http://www.w3.org/2000/svg"
   xmlns:svg="http://www.w3.org/2000/svg">
  <defs
     id="defs14" />
  <sodipodi:namedview
     id="namedview12"
     pagecolor="#ffffff"
     bordercolor="#666666"
     borderopacity="1.0"
     inkscape:pageshadow="2"
     inkscape:pageopacity="0.0"
     inkscape:pagecheckerboard="0"
     inkscape:document-units="pt"
     showgrid="false"
     inkscape:zoom="0.675"
     inkscape:cx="466.66667"
     inkscape:cy="466.66667"
     inkscape:window-width="2560"
     inkscape:window-height="1373"
     inkscape:window-x="0"
     inkscape:window-y="0"
     inkscape:window-maximized="1"
     inkscape:current-layer="svg10" />
  <g
     id="g8"
     transform="matrix(0.74404983,0,0,0.74404983,-7.0780236,43.422327)"
     style="fill:#f9f9f9">
    <path
       d="m 70,112 h 560 c 20.008,0 38.492,-10.672 48.496,-28 10.004,-17.328 10.004,-38.672 0,-56 C 668.492,10.672 650.008,0 630,0 H 70 C 49.992,0 31.508,10.672 21.504,28 11.5,45.328 11.5,66.672 21.504,84 31.508,101.328 49.992,112 70,112 Z"
       id="path2"
       style="fill:#f9f9f9" />
    <path
       d="M 630,224 H 70 c -20.008,0 -38.492,10.672 -48.496,28 -10.004,17.328 -10.004,38.672 0,56 10.004,17.328 28.488,28 48.496,28 h 560 c 20.008,0 38.492,-10.672 48.496,-28 10.004,-17.328 10.004,-38.672 0,-56 C 668.492,234.672 650.008,224 630,224 Z"
       id="path4"
       style="fill:#f9f9f9" />
    <path
       d="M 630,448 H 70 c -20.008,0 -38.492,10.672 -48.496,28 -10.004,17.328 -10.004,38.672 0,56 10.004,17.328 28.488,28 48.496,28 h 560 c 20.008,0 38.492,-10.672 48.496,-28 10.004,-17.328 10.004,-38.672 0,-56 C 668.492,458.672 650.008,448 630,448 Z"
       id="path6"
       style="fill:#f9f9f9" />
  </g>
</svg>
